<?xml version="1.0" encoding="UTF-8"?>
<svg height="16px" viewBox="0 0 16 16" width="16px" xmlns="http://www.w3.org/2000/svg">
    <path d="M 5.84375 0 C 4.6617433 0 3.6875 0.97424334 3.6875 2.15625 V 9.34375 C 3.6875 10.525757 4.6617433 11.5 5.84375 11.5 H 10.15625 C 11.338257 11.5 12.3125 10.525757 12.3125 9.34375 V 2.15625 C 12.3125 0.97424334 11.338257 0 10.15625 0 Z M 5.84375 1.4375 H 10.15625 C 10.566162 1.4375 10.875 1.7463382 10.875 2.15625 V 5.03125 C 10.875 5.429932 10.554932 5.75 10.15625 5.75 H 5.84375 C 5.445068 5.75 5.125 5.429932 5.125 5.03125 V 2.15625 C 5.125 1.7463382 5.4338382 1.4375 5.84375 1.4375 Z M 6.8797606 7.1903074 C 6.9499508 7.1818851 7.0201418 7.195923 7.081909 7.2239988 L 9.238159 8.3021238 C 9.5020754 8.4368895 9.5020754 8.8131105 9.238159 8.945068 L 7.081909 10.023193 C 6.8432617 10.143921 6.5625 9.9698488 6.5625 9.703125 V 7.546875 C 6.5625 7.3643801 6.7000731 7.2127684 6.8797606 7.1903074 Z" fill="#2e3434"/>
</svg>