<?xml version="1.0" encoding="UTF-8"?>
<svg height="32px" viewBox="0 0 32 32" width="32px" xmlns="http://www.w3.org/2000/svg">
    <path d="M 13.0375 8.1 C 11.413526 8.1 10.075 9.4385256 10.075 11.0625 V 20.9375 C 10.075 22.561474 11.413526 23.9 13.0375 23.9 H 18.9625 C 20.586474 23.9 21.925 22.561474 21.925 20.9375 V 11.0625 C 21.925 9.4385256 20.586474 8.1 18.9625 8.1 Z M 13.0375 10.075 H 18.9625 C 19.525684 10.075 19.95 10.499317 19.95 11.0625 V 20.9375 C 19.95 21.500683 19.525684 21.925 18.9625 21.925 H 13.0375 C 12.474317 21.925 12.05 21.500683 12.05 20.9375 V 11.0625 C 12.05 10.499317 12.474317 10.075 13.0375 10.075 Z M 16 11.0625 C 15.456104 11.0625 15.0125 11.506104 15.0125 12.05 C 15.0125 12.593896 15.456104 13.0375 16 13.0375 C 16.543896 13.0375 16.9875 12.593896 16.9875 12.05 C 16.9875 11.506104 16.543896 11.0625 16 11.0625 Z M 16 15.0125 C 14.36831 15.0125 13.0375 16.34331 13.0375 17.975 C 13.0375 19.60669 14.36831 20.9375 16 20.9375 C 17.63169 20.9375 18.9625 19.60669 18.9625 17.975 C 18.9625 16.34331 17.63169 15.0125 16 15.0125 Z M 16 16 C 17.095508 16 17.975 16.879492 17.975 17.975 C 17.975 19.070508 17.095508 19.95 16 19.95 C 14.904492 19.95 14.025 19.070508 14.025 17.975 C 14.025 16.879492 14.904492 16 16 16 Z M 16 16.9875 C 15.456104 16.9875 15.0125 17.431104 15.0125 17.975 C 15.0125 18.518896 15.456104 18.9625 16 18.9625 C 16.543896 18.9625 16.9875 18.518896 16.9875 17.975 C 16.9875 17.431104 16.543896 16.9875 16 16.9875 Z" fill="#2e3434"/>
</svg>