<?xml version="1.0" encoding="UTF-8"?>
<svg height="32px" viewBox="0 0 32 32" width="32px" xmlns="http://www.w3.org/2000/svg">
    <path d="M 11.829166 9.4666665 C 10.272395 9.4666665 9 10.739062 9 12.295833 V 19.704168 C 9 21.260939 10.272395 22.533333 11.829166 22.533333 H 20.170834 C 21.727605 22.533333 23 21.260939 23 19.704168 V 12.295833 C 23 10.739062 21.727605 9.4666665 20.170834 9.4666665 Z M 11.829166 11.333334 H 20.170834 C 20.728646 11.333334 21.133334 11.738022 21.133334 12.295833 V 17.866668 H 10.866667 V 12.295833 C 10.866667 11.738022 11.275001 11.333334 11.829166 11.333334 Z M 10.866667 18.800001 H 15.533333 V 20.666667 H 11.829166 C 11.275001 20.666667 10.866667 20.261979 10.866667 19.704168 Z M 16.466667 18.800001 H 21.133334 V 19.704168 C 21.133334 20.261979 20.728646 20.666667 20.170834 20.666667 H 16.466667 Z M 16.466667 18.800001" fill="#2e3434"/>
</svg>