<svg height="16" viewBox="0 0 16 16" width="16" xmlns="http://www.w3.org/2000/svg"><path d="m7.585938.0898438c-.355469.1640622-.585938.5195312-.585938.9101562v5.296875l-2.34375-2.046875c-.414062-.363281-1.042969-.324219-1.40625.089844-.363281.417968-.324219 1.046875.09375 1.410156l2.566406 2.25-2.566406 2.25c-.417969.363281-.457031.992188-.09375 1.40625.363281.417969.992188.457031 1.40625.09375l2.34375-2.046875v5.296875c0 .390625.230469.746094.585938.910156.359374.160156.777343.101563 1.070312-.160156l4-3.5c.21875-.1875.34375-.460938.34375-.75s-.125-.5625-.34375-.75l-3.140625-2.75 3.140625-2.75c.21875-.1875.34375-.460938.34375-.75s-.125-.5625-.34375-.75l-4-3.5c-.292969-.2617188-.710938-.3242188-1.070312-.1601562zm1.414062 3.1132812 1.484375 1.296875-1.484375 1.296875zm0 7 1.484375 1.296875-1.484375 1.296875zm0 0"/><path d="m12.196655 6.3907842-1.753907 1.5429688-.02539.027344c-.01116.012612-.01071.031809.002.042969l1.773437 1.5683594.06445-.056641a5.0171371 5.0171371 0 0 0 .267535-1.5859377 5.0171371 5.0171371 0 0 0 -.208985-1.4335937z"/><path d="m3.2578125 6.4472656a4.7145214 4.7145214 0 0 0 -.2695313 1.5410156 4.7145214 4.7145214 0 0 0 .265625 1.5273438l1.6894532-1.4863281.0253906-.0273438c.01116-.012612.0107569-.0318087-.0019531-.0429687z"/><g stroke-width=".920106"><path d="m13.554258 5.2585572-.625.5488281a5.5571909 5.5571909 0 0 1 .414062 2.0605469 5.5571909 5.5571909 0 0 1 -.470703 2.2363288l.617188.533203a6.3211079 6.3211079 0 0 0 .638672-2.7480475 6.3211079 6.3211079 0 0 0 -.574219-2.6308593z"/><path d="m1.9814259 10.637464.625-.548829a5.5571909 5.5571909 0 0 1 -.414062-2.0605468 5.5571909 5.5571909 0 0 1 .470703-2.2363279l-.617188-.533203a6.3211079 6.3211079 0 0 0 -.638672 2.7480466 6.3211079 6.3211079 0 0 0 .574219 2.6308601z"/></g></svg>