<svg height="16" viewBox="0 0 16 16" width="16" xmlns="http://www.w3.org/2000/svg"><path d="m7.957031 0c-.128906.0078125-.253906.0390625-.371093.0898438-.355469.1640622-.585938.5195312-.585938.9101562v5.296875l-2.34375-2.046875c-.414062-.363281-1.042969-.324219-1.40625.09375-.363281.414062-.324219 1.042969.09375 1.40625l2.566406 2.25-2.566406 2.25c-.417969.363281-.457031.992188-.09375 1.40625.363281.417969.992188.457031 1.40625.09375l2.34375-2.046875v5.296875c0 .390625.230469.746094.585938.910156.359374.160156.777343.101563 1.070312-.160156l.386719-.335938c-.132813-.640624.046875-1.335937.539062-1.828124l.417969-.417969v-.335938l-.417969-.417969c-.023437-.023437-.042969-.046874-.0625-.070312l-.519531.453125v-2.59375l.125.109375c.09375-.265625.246094-.515625.457031-.726562.300781-.300782.691407-.496094 1.105469-.5625l-1.167969-1.023438 3.136719-2.75c.21875-.1875.34375-.460938.34375-.75s-.125-.5625-.34375-.75l-4-3.5c-.191406-.171875-.445312-.2578125-.699219-.25zm1.042969 3.203125 1.480469 1.296875-1.480469 1.296875zm0 0" fill="#2e3434" fill-opacity=".34902"/><path d="m11.315635 10.502258c-.22095 0-.432152.08773-.588117.243695-.324927.324927-.324927.851308 0 1.176234l1.075508 1.075508-1.075508 1.075507c-.324927.324927-.324927.851308 0 1.176235.324927.324926.851308.324926 1.176235 0l1.075507-1.075508 1.075508 1.075508c.324926.324926.851307.324926 1.176234 0 .324927-.324927.324927-.851308 0-1.176235l-1.075508-1.075507 1.075508-1.075508c.324927-.324926.324927-.851307 0-1.176234-.155965-.155965-.367167-.243695-.588117-.243695s-.432152.08773-.588117.243695l-1.075508 1.075508-1.075507-1.075508c-.155965-.155965-.367167-.243695-.588118-.243695zm0 0" fill="#2e3436" stroke-width=".831812"/></svg>