<svg height="16" viewBox="0 0 16 16" width="16" xmlns="http://www.w3.org/2000/svg"><circle class="warning" cx="7.851777" cy="14.705316" fill="#ff5b00" r="1.294684"/><g fill="#2e3436" transform="matrix(.80107987 0 0 .80107987 1.56 0)"><path d="m3.994 1c-1.258.015-2.179-.03-2.931.385a1.88 1.88 0 0 0 -.838.998c-.165.439-.225.96-.225 1.617v8c0 .658.06 1.179.225 1.617.164.439.461.79.838.998.752.416 1.673.37 2.931.385h8.012c1.258-.014 2.179.03 2.932-.385a1.88 1.88 0 0 0 .838-.998c.164-.438.224-.96.224-1.617v-8c0-.658-.06-1.178-.225-1.617-.005-.013-.012-.023-.017-.035l-.82.806c.037.23.062.499.062.846v8c0 .592-.063 1.006-.16 1.266-.098.26-.203.371-.387.472-.366.202-1.194.247-2.453.262h-8c-1.259-.015-2.09-.06-2.455-.262-.183-.1-.287-.212-.385-.472-.097-.26-.16-.674-.16-1.266v-8c0-.592.063-1.006.16-1.266.098-.26.202-.371.385-.472.365-.202 1.195-.247 2.455-.262h3.852l.982-1h-4.836z"/><path d="m11.238 0-.353.36-6.969 7.095-.03.045c-.061.099-.27.45-.583 1.088-.314.638-.7 1.51-1.012 2.492l-.291.92.92-.291a18.163 18.163 0 0 0 2.492-1.012c.638-.313.987-.52 1.088-.584l.045-.029 7.455-7.322zm-6.347 7.89 1.218 1.22-.177.175c.007-.005-.379.227-.961.514-.214.105-.536.222-.834.338l-.274-.274c.116-.298.233-.62.338-.834.287-.582.518-.966.514-.96zm-.891 4.11v1h10v-6h-1v5z"/></g></svg>
