<svg height="16" viewBox="0 0 16 16" width="16" xmlns="http://www.w3.org/2000/svg"><circle class="warning" cx="7.851777" cy="14.705316" fill="#ff5b00" r="1.294684"/><path d="m8.0000001 0c-1.0546875 0-2.0892861.27790201-3 .80357142-1.85491 1.07142858-3.0000001 3.05357108-3.0000001 5.19642868v5.1428609s0 1.714278 1.7142862 1.714278h.8571417c.4754484 0 .8571444-.38169.8571444-.857139v-3.4285716c0-.4754462-.4285722-.8571422-.8571444-.8571422 0 0-.8571417 0-.8571417-.8571435v-.8571426c0-1.5301341.8169638-2.9464278 2.1428563-3.7131689 1.3258928-.7633931 2.9598218-.7633931 4.2857155 0 1.325899.7667411 2.142864 2.1830348 2.142864 3.7131689v.8571426c0 .8571435-.857143.8571435-.857143.8571435-.428579 0-.857155.381696-.857155.8571422v3.4285716c0 .475449.381708.857139.857155.857139h.857143c1.714278 0 1.714278-1.714278 1.714278-1.714278v-5.1428609c0-2.1428576-1.145098-4.1250001-3-5.19642868-.910716-.52566941-1.9453127-.80357142-2.9999999-.80357142zm0 0" fill="#2e3436" stroke-width=".999988"/></svg>
