<svg height="16" viewBox="0 0 16 16" width="16" xmlns="http://www.w3.org/2000/svg"><path d="m7.5292969 0-3.3496094 3.4531251h-2.515625s-.83398438.7704416-.83398438 2.5898436c0 1.8194021.83398438 2.5878907.83398438 2.5878907h2.515625l3.3496094 3.4531246zm4.2382811.26953125c-.100919-.00054803-.202755.0198125-.298828.0644531-.253412.1190417-.416016.37672348-.416016.66015628v3.84374997l-1.6718746-1.484375c-.2951807-.2635921-.7429729-.235986-1.0019532.0644532-.2589796.3032724-.2315604.7598451.0664063 1.0234374l1.8300785 1.6328125-1.2714848 1.1347656c.04989-.00479.1011565-.00781.1523438-.00781h4.955078l-1.265625-1.1269556 2.238281-1.9960937c.155945-.1360478.246094-.3332288.246094-.5429687 0-.20974-.09015-.408874-.246094-.5449219l-2.851562-2.53906253c-.130535-.11868752-.296645-.18072722-.464844-.18164062zm.710938 2.32421885 1.05664.9414062-1.05664.939453z" fill="#2e3436" stroke-width=".719213"/><path class="warning" d="m9.5 8c-.832031 0-1.5.667969-1.5 1.5v5c0 .832031.667969 1.5 1.5 1.5h5c.832031 0 1.5-.667969 1.5-1.5v-5c0-.832031-.667969-1.5-1.5-1.5zm1.5 1h2v2.5s0 .5-.5.5h-1c-.5 0-.5-.5-.5-.5zm.5 4h1c.277344 0 .5.222656.5.5v1c0 .277344-.222656.5-.5.5h-1c-.277344 0-.5-.222656-.5-.5v-1c0-.277344.222656-.5.5-.5zm0 0" fill="#ff7800"/></svg>
