<svg height="16" viewBox="0 0 16 16" width="16" xmlns="http://www.w3.org/2000/svg" xmlns:xlink="http://www.w3.org/1999/xlink"><filter id="a" height="100%" width="100%" x="0%" y="0%"><feColorMatrix color-interpolation-filters="sRGB" values="0 0 0 0 1 0 0 0 0 1 0 0 0 0 1 0 0 0 1 0"/></filter><mask id="b"><g filter="url(#a)"><path d="m-1.6-1.6h19.2v19.2h-19.2z" fill-opacity=".5"/></g></mask><clipPath id="c"><path d="m0 0h1600v1200h-1600z"/></clipPath><mask id="d"><g filter="url(#a)"><path d="m-1.6-1.6h19.2v19.2h-19.2z" fill-opacity=".7"/></g></mask><clipPath id="e"><path d="m0 0h1600v1200h-1600z"/></clipPath><mask id="f"><g filter="url(#a)"><path d="m-1.6-1.6h19.2v19.2h-19.2z" fill-opacity=".35"/></g></mask><clipPath id="g"><path d="m0 0h1600v1200h-1600z"/></clipPath><path d="m8 0c-4.402344 0-8 3.597656-8 8s3.597656 8 8 8 8-3.597656 8-8-3.597656-8-8-8zm0 1.980469c3.339844 0 6.019531 2.679687 6.019531 6.019531s-2.679687 6.019531-6.019531 6.019531-6.019531-2.679687-6.019531-6.019531 2.679687-6.019531 6.019531-6.019531zm-2.554688 3.023437c-.113281.011719-.21875.0625-.300781.140625l-.972656.980469-.027344.019531.003907.003907c-.09375.09375-.148438.21875-.148438.351562 0 .277344.222656.5.5.5.132812 0 .257812-.050781.355469-.144531l.019531-.027344.625-.621094.621094.621094.023437.027344c.09375.09375.222657.144531.355469.144531.277344 0 .5-.222656.5-.5 0-.132812-.050781-.257812-.144531-.355469-.007813-.003906-.011719-.011719-.019531-.015625l-.984376-.984375c-.105468-.105469-.257812-.15625-.410156-.140625zm5 0c-.113281.011719-.21875.0625-.300781.140625l-.972656.980469-.027344.019531.003907.003907c-.09375.09375-.148438.21875-.148438.351562 0 .277344.222656.5.5.5.132812 0 .257812-.050781.355469-.144531l.019531-.027344.625-.621094.621094.621094.023437.027344c.09375.09375.222657.144531.355469.144531.277344 0 .5-.222656.5-.5 0-.132812-.050781-.257812-.144531-.355469-.007813-.003906-.011719-.011719-.019531-.015625l-.984376-.984375c-.105468-.105469-.257812-.15625-.410156-.140625zm-6.445312 3.996094c.597656 1.792969 2.203125 2.996094 4 3 1.796875-.003906 3.402344-1.207031 4-3zm0 0" fill="#222"/><g mask="url(#b)"><g clip-path="url(#c)" transform="translate(-856 -554)"><path d="m550 182c-.351562.003906-.695312.101562-1 .28125v3.4375c.304688.179688.648438.277344 1 .28125 1.105469 0 2-.894531 2-2s-.894531-2-2-2zm0 5c-.339844 0-.679688.058594-1 .175781v6.824219h4v-4c0-1.65625-1.34375-3-3-3zm0 0"/></g></g><g mask="url(#d)"><g clip-path="url(#e)" transform="translate(-856 -554)"><path d="m569 182v4c1.105469 0 2-.894531 2-2s-.894531-2-2-2zm0 5v7h3v-4c0-1.65625-1.34375-3-3-3zm0 0"/></g></g><g mask="url(#f)"><g clip-path="url(#g)" transform="translate(-856 -554)"><path d="m573 182.269531v3.449219c.613281-.355469.996094-1.007812 1-1.71875 0-.714844-.382812-1.375-1-1.730469zm0 4.90625v6.824219h2v-4c0-1.269531-.800781-2.402344-2-2.824219zm0 0"/></g></g></svg>