<svg height="16" viewBox="0 0 16 16" width="16" xmlns="http://www.w3.org/2000/svg"><path d="m8 .12109375c-5.5340835 0-5.7581072.00149875-5.9277344.04101563-.9193032.21416388-1.62662055.88823532-1.87890622 1.79101562l-.06054688.2167969v3.8574219 3.8574218l.05078125.1835934c.23897813.868658.89111365 1.537149 1.73632815 1.777344.1072698.030485.2647609.063621.3496093.074219.1101321.013755 2.5587932.022298 5.1308594.023437v-1.958984h-1.9824218l-.1191407-.0605469c-.0782291-.0396689-.1421849-.093734-.1855469-.15625l-.0664062-.0957031-.0078125-.6328125c-.004567-.4177239.0014241-.6599568.0175781-.7148437.0308445-.1048037.1375088-.2258541.2460938-.28125.0812828-.0414675.1484155-.0429688 2.2011718-.0429688.0583619 0 .0541327-.0000074.109375 0 .2350619-.361762.6420416-.5996094 1.1074219-.5996094h5.9589849c.523945 0 .973815.3019719 1.1875.7421875v-2.1269531-3.8457031l-.060547-.2148438c-.252589-.9034833-.964726-1.58286974-1.878907-1.79296872-.168738-.03877957-.422637-.04101563-5.927734-.04101563zm-4.9375 1.95117185c.5524212 0 .6270128.0046702.7070312.0410156.1166913.0530028.2409134.2008576.2714844.3222657.032309.1283119.032309 1.1275475 0 1.2558593-.030571.1214082-.1547931.2692627-.2714844.3222657-.0800911.036381-.1541086.041355-.7070312.0410156-.687142-.0004216-.7052516-.0040449-.8535156-.1484375-.133608-.1301192-.1484375-.2146747-.1484375-.8554688 0-.6177842.0120033-.6889479.1386719-.8222656.1427741-.1502723.1748023-.15625.8632812-.15625zm5.3066406 0h.6152344c.5063828 0 .6298296.0050336.6972656.0332032.1039348.0434161.1932004.1296864.2539063.2421874.0455579.0844274.0488281.1132993.0488281.7148438s-.0032712.63237-.0488281.7167969c-.0607059.1125009-.1499715.1987715-.2539063.2421875-.0675103.0282026-.1908377.0336019-.6953125.0332031-.6743021-.0005332-.7158441-.0074052-.8515625-.1445313-.1359635-.1373743-.1347656-.1350303-.1347656-.8476562v-.6523438l.0664062-.1074218c.0483832-.0782579.0977725-.1250882.1835938-.1699219zm3.5917974 0h.625l.11914.0703125c.092527.0555578.133161.0983204.181641.1914063l.0625.1210937-.00586.6308594-.005859.6308594-.066406.1074219c-.048357.0781727-.099767.1251119-.185547.1699218l-.117188.0605469h-.621093c-.461414-.000642-.636347-.0078039-.685547-.0292969-.101702-.044429-.206116-.1418929-.259766-.2421875-.04692-.0876219-.048828-.1151991-.048828-.7207031 0-.6015445.001315-.6304168.046875-.7148438.060705-.1125006.151924-.1987715.255859-.2421874.067532-.028207.190558-.0332032.705079-.0332032zm-6.3691411.0039063c.1222133-.002742.2882762-.002145.484375 0l.6308593.0058593.0957032.0664063c.0628598.0436029.1157934.1078159.15625.1875l.0625.1210937-.0078125.6308594-.0058594.6289063-.0664063.1074219c-.0483572.0781727-.0978178.1251119-.1835937.1699218l-.1191406.0605469h-.6191407c-.5857927-.000016-.6244387-.003092-.7128906-.046875-.0514952-.0254891-.1201838-.0770974-.1523437-.1152344-.1137647-.1349082-.1177076-.164132-.1171875-.8339843.000434-.5586349.0044956-.6324848.0410156-.7128907.0479442-.1055599.1803252-.2217463.2890625-.2539062.0239428-.007083.102396-.012883.2246094-.015625zm-1.53125 2.9472656c.2980523.0010217.5943017.0131869.6503906.0332031.1269562.0453062.226137.1321561.2832031.2480469.050693.1029418.0527344.1192954.0527344.7226563 0 .5641021-.0043088.625239-.0429688.703125-.0632356.1273946-.1809979.2302661-.3066406.2675781-.085941.0255259-.231569.0310468-.6523437.0292969-.2977999-.001241-.5710579-.0087282-.6074219-.0175782-.1698039-.0413385-.312202-.1726295-.359375-.3300781-.033019-.1102172-.0347721-1.1923475-.0019531-1.3105469.0315825-.1137451.2015238-.283083.3203125-.3183594.0659928-.0195976.3660102-.0283654.6640625-.0273437zm2.9414062 0c.2980523-.0010217.5980697.0077461.6640625.0273437.1192761.0354212.2829381.1990832.3183594.3183594.0183141.0616705.025719.2765632.0253906.671875-.0004476.5375799-.0033542.5899521-.0449218.6816406-.0559316.123372-.1152459.1890418-.2285157.25-.0832879.0448235-.1214004.0462713-.6835937.0507813-.6840462.0054852-.7440267-.0037923-.8886719-.1484375-.1413731-.1413698-.1484375-.1766709-.1484375-.859375 0-.5917916.0021124-.6081339.0527344-.7109375.0570666-.1158908.1582002-.2027407.2851562-.2480469.056089-.0200162.3503852-.0321814.6484375-.0332031zm2.609375.0058594c.1049291-.0021581.2387706-.0019402.4101559 0l.601563.0058593.103515.0625c.072712.0427416.126236.0962094.171876.1757813l.064453.1152344.001953.6230469c.00017.5139796-.006937.6375121-.035156.7050781-.043416.1039349-.127734.1951534-.240235.2558593-.083356.044984-.121596.0469513-.673828.0507813-.6937102.0048055-.7593373-.0074439-.90625-.1621094-.1209008-.1272778-.1289062-.1729379-.1289062-.8339843-.0000001-.6778475.0050109-.7063244.1484374-.8535157.1035525-.1062707.1676348-.1380571.4824219-.1445312zm3.3261719.0058593c.581702 0 .644634.0035667.714844.0410157.108367.0578055.173535.1224521.228515.2246093.04544.0844463.046875.1143276.046875.7265626v.6386718l-.060546.1035156c-.071285.1212632-.157279.1884558-.296876.2304688-.138031.041544-1.141744.0398448-1.27539-.0019531-.131352-.0410797-.219543-.1102522-.289063-.2285157l-.060547-.1035156v-.6386718c.000001-.5817022.003566-.646592.041016-.7167969.057806-.1083678.120499-.1715846.222656-.2265625.084447-.045442.116282-.0488282.728516-.0488282zm-9.2441406 2.9628907.1074218.0585937c.1251281.0681032.2088373.1760655.2441407.3183594.0161274.0650013.0220718.2991472.0175781.671875-.0065358.5421209-.0102795.5773664-.0566406.6640625-.0594232.1111226-.1885647.2209497-.2929688.25-.0424241.011808-.3389444.0219494-.6601562.0214844-.6722727-.0009721-.7116792-.008879-.8535156-.1640625-.132741-.1452288-.1434957-.2221-.1347657-.9042969l.0078125-.5722656.0585938-.1015625c.0325669-.0553962.101125-.1285485.1523437-.1640625l.09375-.0644531.6582031-.0078126z" fill="#2e3436"/><path class="warning" d="m9.5 8c-.832031 0-1.5.667969-1.5 1.5v5c0 .832031.667969 1.5 1.5 1.5h5c.832031 0 1.5-.667969 1.5-1.5v-5c0-.832031-.667969-1.5-1.5-1.5zm1.5 1h2v2.5s0 .5-.5.5h-1c-.5 0-.5-.5-.5-.5zm.5 4h1c.277344 0 .5.222656.5.5v1c0 .277344-.222656.5-.5.5h-1c-.277344 0-.5-.222656-.5-.5v-1c0-.277344.222656-.5.5-.5zm0 0" fill="#ff7800"/></svg>
