<svg height="16" viewBox="0 0 16 16" width="16" xmlns="http://www.w3.org/2000/svg"><g fill="#2e3436"><circle cx="5.851777" cy="14.50299" r="1.294684"/><circle cx="9.966578" cy="14.50299" r="1.294684"/><path d="m3.5559635 1.5c-1.6392682 0-2.76554198.9874181-2.96225443 2.9622544 0 0-.49370907 2.9622544-.49370907 4.9370906 0 0 0 2.962254 2.9931112 2.962254 2.9313976 0 2.9313976-2.962254 2.9313976-2.962254 0-1.4811272 1.0375602-1.9786931 1.9748362-1.9748362.9295614.00386 1.9748363.493709 2.005693 1.9748362 0 0-.030857 2.962254 2.931398 2.962254 2.962254 0 2.962254-2.962254 2.962254-2.962254.030857-1.9748362-.493709-4.9370906-.493709-4.9370906-.161998-1.6315544-1.322986-2.9622544-2.962254-2.9622544zm.7405636 1.9748363h.493709c.1349988 0 .2468545.1118557.2468545.2468545v.7405636h.7405636c.1349989 0 .2468546.1118557.2468546.2468545v.4937091c0 .1349988-.1118557.2468545-.2468546.2468545h-.7405636v.7405636c0 .1349988-.1118557.2468545-.2468545.2468545h-.493709c-.1349989 0-.2468546-.1118557-.2468546-.2468545v-.7405636h-.7405636c-.1349988 0-.2468545-.1118557-.2468545-.2468545v-.4937091c0-.1349988.1118557-.2468545.2468545-.2468545h.7405636v-.7405636c0-.1349988.1118557-.2468545.2468546-.2468545zm5.6776542 0c.5438507 0 .9874177.4435669.9874177.9874181 0 .5438511-.443567.9874181-.9874177.9874181-.5438511 0-.9874181-.443567-.9874181-.9874181 0-.5438512.443567-.9874181.9874181-.9874181zm2.9622547 1.9748362c.543851 0 .987418.443567.987418.9874181 0 .5438512-.443567.9874182-.987418.9874182s-.987418-.443567-.987418-.9874182c0-.5438511.443567-.9874181.987418-.9874181zm0 0" stroke-width=".999998"/></g></svg>