<svg height="16" viewBox="0 0 16 16" width="16" xmlns="http://www.w3.org/2000/svg"><path d="m7.585938.0898438c-.355469.1640622-.585938.5195312-.585938.9101562v5.296875l-2.34375-2.046875c-.414062-.363281-1.042969-.324219-1.40625.089844-.363281.417968-.324219 1.046875.09375 1.410156l2.566406 2.25-2.566406 2.25c-.417969.363281-.457031.992188-.09375 1.40625.363281.417969.992188.457031 1.40625.09375l2.34375-2.046875v5.296875c0 .390625.230469.746094.585938.910156.359374.160156.777343.101563 1.070312-.160156l4-3.5c.21875-.1875.34375-.460938.34375-.75s-.125-.5625-.34375-.75l-3.140625-2.75 3.140625-2.75c.21875-.1875.34375-.460938.34375-.75s-.125-.5625-.34375-.75l-4-3.5c-.292969-.2617188-.710938-.3242188-1.070312-.1601562zm1.414062 3.1132812 1.484375 1.296875-1.484375 1.296875zm0 7 1.484375 1.296875-1.484375 1.296875zm0 0"/><g stroke-width="1.02937"><path d="m1.1505405 5.9543059.0000001 4.1447241c.083952-.0051.1672883-.03934.2317067-.1053738l1.6660046-1.7077335c.139659-.1431571.139659-.3736792 0-.5168362l-1.6660045-1.7094062c-.0644185-.066032-.1477552-.1002577-.2317069-.1053744z"/><path d="m14.918998 10.099031v-4.1447254c-.08395.0051-.167288.03934-.231706.105374l-1.666005 1.7077343c-.139659.1431571-.139659.3736791 0 .5168361l1.666004 1.7094059c.06442.06603.147756.1002581.231707.1053751z"/></g></svg>