<svg height="16" viewBox="0 0 16 16" width="16" xmlns="http://www.w3.org/2000/svg"><circle class="warning" cx="7.851777" cy="14.705316" fill="#ff5b00" r="1.294684"/><path d="m2.2699725 11.798846c-.0848485-.010598-.2420362-.044211-.3493061-.074696-.8452153-.240195-1.49894129-.908789-1.73791966-1.7774471l-.05051534-.1836175v-3.8567493-3.8567493l.0607896-.21753c.25228593-.90278122.9593002-1.57681929 1.8786043-1.79098339.1696273-.03951691.3942857-.04107341 5.9283747-.04107341 5.505103 0 5.759636.00174 5.928375.0405196.914182.2100992 1.626525.88996888 1.879114 1.7934531l.06028.2156141v3.84573 3.8457301l-.04848.189913c-.254432.9967181-1.099217 1.7442731-2.111301 1.8683011-.24285.02976-11.1996218.02936-11.4380155-.000415zm1.4435261-1.9582955c.1044042-.0290503.2332274-.1392731.2926506-.2503958.0463612-.0866962.0493117-.1217712.0558475-.6638926.0044937-.3727282-.0017366-.6071749-.017864-.6721763-.0353034-.142294-.1174497-.2500245-.2425779-.3181277l-.1084606-.059032-.6583967.00644-.6583967.00644-.093125.064569c-.0512188.0355141-.1197708.1098942-.1523378.1652904l-.059213.1007202-.00733.5730028c-.00873.6821976.00278.7590265.1355211.9042554.1418366.1551837.1802555.1625527.8525288.1635248.3212121.000465.6187328-.00881.661157-.020618zm5.9300875-.00345c.1117512-.033481.2308397-.1345642.2909378-.2469488.047284-.088423.048947-.1128685.048947-.7196313 0-.6015451-.00201-.6318261-.047568-.7162534-.0553502-.1025718-.1436431-.1896166-.2433484-.2399053-.0634517-.0320031-.283085-.0355738-2.1882058-.0355738-2.0527584 0-2.1202453.00131-2.2015282.042779-.1085851.055396-.2145283.1771209-.2453728.2819247-.016154.054887-.02209.2970464-.017523.7147707l.00691.6317608.066252.095512c.043362.062516.1075381.116449.1857673.156118l.119518.060606h2.0706263c1.4877288 0 2.0942621-.00708 2.1545878-.025155zm3.0065519-.015961c.113362-.051629.24402-.1968558.273892-.3044311.01378-.049607.02343-.3253966.02351-.6712196l.000133-.5870151-.06156-.1178426c-.0384-.07351-.09714-.1428575-.156122-.1843348l-.09457-.066492-.658374-.00643c-.616682-.00603-.663667-.00371-.741951.036549-.09788.05034-.183332.1373944-.24084.2453658-.03727.069977-.04108.1344011-.04108.6942149 0 .6040524.0011.6193115.05205.7227881.05656.114861.159589.209499.272775.2505481.04843.017565.269517.026454.677931.027258.540931.00106.615534-.00312.694215-.038956zm-7.9525074-2.94489c.1256428-.037312.2436743-.1402385.30691-.2676333.03866-.077886.042291-.1381774.042291-.7022801 0-.6033615-.00115-.6194204-.051843-.7223623-.0570662-.1158909-.1572438-.2036428-.2842001-.248949-.112178-.0400324-1.1823065-.0437007-1.3142922-.0045053-.1187888.0352764-.2885794.2035431-.320162.3172883-.032819.1181995-.031859 1.2001616.00116 1.3103789.047173.1574488.1907153.288958.3605194.3302966.036364.00885.3097701.017111.6075703.018352.4207751.00175.5661027-.00506.6520438-.030586zm3.0379066-.02562c.1132699-.0609583.1736214-.1267064.229553-.2500785.0415677-.0916886.0449975-.1430583.0454451-.6806387.0003284-.3953122-.0081401-.6105058-.0264542-.6721763-.0354213-.1192763-.1979403-.2817953-.3172165-.3172165-.1319857-.0391954-1.2021142-.0355271-1.3142923.0045053-.1269562.0453062-.2271338.1330581-.2842005.248949-.050622.1028037-.051843.1195508-.051843.711343 0 .6827048.00587.7169411.1472432.858311.1446453.1446453.2045226.1547004.8885695.1492152.5621939-.00451.5999077-.00739.6831957-.052213zm2.9531678-.0001323c.112501-.060706.197839-.1508189.241255-.2547539.02822-.067566.03419-.191254.03402-.7052342l-.000198-.6232972-.06578-.1146988c-.04564-.079572-.09788-.133567-.170592-.1763086l-.10482-.0616039-.601956-.0068146c-.6855435-.0077606-.7534609.0032838-.891531.1449783-.1434267.1471914-.1483867.1757237-.1483867.8535718 0 .6610471.00699.7066455.1278909.8339235.1469128.1546656.2142109.1666632.9079218.1618577.552233-.00383.58882-.00663.672176-.051614zm2.881954.028167c.139597-.042013.22574-.1087094.297025-.2299727l.06069-.1032372v-.6391182c0-.6122356-.002-.6428264-.04744-.7272727-.05498-.1021574-.119673-.1655119-.22804-.2233175-.07021-.037449-.134551-.041145-.716254-.041145-.612235 0-.642826.002-.727273.047442-.102157.054978-.165511.1196722-.223317.2280401-.03745.070205-.04115.1345507-.04115.7162534v.6391185l.06069.1032429c.06952.1182636.157042.1876906.288394.2287703.133646.041798 1.138638.042744 1.27667.0012zm-9.800834-2.9863475c.1166914-.053003.2413895-.20069.2719606-.3220983.032309-.128312.032309-1.1278272 0-1.2561393-.0305711-.1214082-.1552692-.2690955-.2719606-.3220983-.080018-.036346-.1540423-.0406-.7064641-.0406-.6884796 0-.7213021.00593-.8640764.1562025-.1266687.1333178-.1386784.2045317-.1386784.8223166 0 .6407947.014484.7243658.1480921.8544851.1482642.1443927.16752.1477307.8546627.1481523.5529232.0003394.6263729-.00384.7064641-.040221zm2.9876487-.020013c.085776-.04481.1359775-.090839.1843348-.1690118l.066456-.1074309.00637-.6298863.00637-.6298865-.061464-.1210757c-.0404566-.0796842-.094121-.143725-.1569809-.1873279l-.095512-.066252-.6317609-.00691c-.3921979-.00429-.66101.00174-.7088956.015906-.1087374.03216-.2409195.1483452-.2888637.2539052-.03652.080406-.040797.1543753-.041231.7130107-.0005201.669853.00366.6995641.1174248.8344725.03216.038137.1006048.090196.1521001.1156851.088452.043783.1279072.046346.7137005.046362l.6200729.0000174zm2.923675.027354c.1039349-.043416.194048-.1287541.2547539-.2412551.045557-.084427.047568-.1147083.047568-.7162534s-.00201-.6318261-.047568-.7162535c-.0607059-.1125012-.150819-.1978393-.2547539-.2412555-.0674361-.0281696-.1908247-.034227-.697208-.034227h-.6152712l-.1178788.0615807c-.0858214.0448337-.1359515.0908126-.1843347.1690706l-.066456.10749v.651866c0 .7126266-.0002689.7109413.1356948.8483158.1357185.1371262.1769362.1441309.851239.1446641.5044753.0003988.6267045-.00554.6942149-.033743zm3.0046993-.027354c.08578-.04481.135978-.090839.184335-.1690118l.06646-.1074309.0064-.6310918.0064-.6310918-.0625-.1200069c-.04848-.093086-.08925-.1360741-.181777-.1916319l-.11928-.071625h-.624186c-.514521 0-.638678.00602-.70621.034227-.103935.043416-.194048.1287543-.254753.2412551-.04556.084427-.04757.1147084-.04757.7162535 0 .6055046.0017.6313688.04862.7189908.05365.1002947.158218.1977074.25992.2421365.0492.021493.224775.029104.686189.029746l.620073.0008626z" fill="#2e3436"/></svg>
