<svg height="16" viewBox="0 0 16 16" width="16" xmlns="http://www.w3.org/2000/svg"><path d="m7.5292969.19921875-3.3496094 3.45312505h-2.515625s-.83398438.7704416-.83398438 2.5898437.83398438 2.5878906.83398438 2.5878906h2.515625l3.3496094 3.4531249zm4.2382811.26953125c-.100919-.00054803-.202755.01981247-.298828.06445312-.253412.1190417-.416016.37672348-.416016.66015628v3.84375l-1.6718746-1.484375c-.2951807-.2635922-.7429729-.235986-1.0019532.0644531-.2589796.3032725-.2315604.7598452.0664063 1.0234375l1.8300785 1.6328125-1.2714848 1.1347656c.0498903-.00479.1011565-.0078125.1523438-.0078125h4.955078l-1.265625-1.1269531 2.238281-1.9960937c.155945-.1360478.246094-.3332289.246094-.5429688s-.09015-.408874-.246094-.5449219l-2.851562-2.53906248c-.130535-.11868752-.296645-.18072722-.464844-.18164062zm.710938 2.3242188 1.05664.9414062-1.05664.9394531z" fill="#2e3436" stroke-width=".719213"/><path class="warning" d="m9.5 8c-.832031 0-1.5.667969-1.5 1.5v5c0 .832031.667969 1.5 1.5 1.5h5c.832031 0 1.5-.667969 1.5-1.5v-5c0-.832031-.667969-1.5-1.5-1.5zm1.5 1h2v2.5s0 .5-.5.5h-1c-.5 0-.5-.5-.5-.5zm.5 4h1c.277344 0 .5.222656.5.5v1c0 .277344-.222656.5-.5.5h-1c-.277344 0-.5-.222656-.5-.5v-1c0-.277344.222656-.5.5-.5zm0 0" fill="#ff7800"/></svg>
