<svg height="16" viewBox="0 0 16 16" width="16" xmlns="http://www.w3.org/2000/svg"><path d="m8 .09960938c-1.0546864 0-2.089287.27901861-3 .8046875-1.8549081 1.07142752-3 3.05245702-3 5.19531252v5.1425786s.0005593 1.714843 1.7148438 1.714843h.8574218c.4754479 0 .8554688-.381973.8554688-.857422v-3.427734c0-.4754457-.426897-.8574219-.8554688-.8574219 0 0-.8574218-.0002792-.8574218-.8574219v-.8574218c0-1.5301326.8166869-2.9461503 2.1425781-3.7128906 1.3258914-.7633924 2.9592639-.7633924 4.2851561 0 1.325898.7667403 2.142578 2.182758 2.142578 3.7128906v.8574218c0 .185412-.040653.3294861-.103515.4433594h1.818359v-1.3007812c0-2.1428555-1.1451-4.123885-3-5.19531252-.910715-.52566889-1.9453139-.8046875-3-.8046875z" fill="#2e3436" stroke-width=".999988"/><path class="warning" d="m9.5 8c-.832031 0-1.5.667969-1.5 1.5v5c0 .832031.667969 1.5 1.5 1.5h5c.832031 0 1.5-.667969 1.5-1.5v-5c0-.832031-.667969-1.5-1.5-1.5zm1.5 1h2v2.5s0 .5-.5.5h-1c-.5 0-.5-.5-.5-.5zm.5 4h1c.277344 0 .5.222656.5.5v1c0 .277344-.222656.5-.5.5h-1c-.277344 0-.5-.222656-.5-.5v-1c0-.277344.222656-.5.5-.5zm0 0" fill="#ff7800"/></svg>
