<svg height="16" viewBox="0 0 16 16" width="16" xmlns="http://www.w3.org/2000/svg"><g fill="#2e3436"><circle cx="10.081377" cy="14.50299" r="1.294684"/><circle cx="1.851777" cy="14.50299" r="1.294684"/><circle cx="5.966577" cy="14.50299" r="1.294684"/><circle cx="14.196177" cy="14.50299" r="1.294684"/><path d="m7.5292188.2-3.3496094 3.4531251h-2.515625s-.8339844.7704397-.8339844 2.5898436.8339844 2.5878906.8339844 2.5878906h2.515625l3.3496094 3.4531247zm4.2382812.26953122c-.100919-.00054803-.202755.0198124-.298828.0644531-.253412.11904181-.416016.37672322-.416016.66015628v3.84375l-1.671875-1.4843749c-.295181-.2635924-.7429724-.2359863-1.0019529.0644531-.2589799.3032728-.2315607.7598448.0664063 1.0234374l1.8300786 1.6328125-1.8300786 1.6328125c-.2979672.2635936-.3253864.719092-.066406 1.0195314.2589805.3032731.7067716.331956 1.0019526.0683589l1.671875-1.484375v3.8417975c0 .283433.162604.541114.416016.660156.256194.116207.554816.07466.763672-.115234l2.851562-2.5390632c.155945-.1360469.246094-.3351824.246094-.5449219 0-.2097406-.09015-.4088739-.246094-.5449219l-2.238281-1.9941403 2.238281-1.9960937c.155945-.1360479.246094-.3332286.246094-.5429687s-.09015-.4088739-.246094-.5449219l-2.851562-2.53906255c-.130535-.11868764-.296645-.18072723-.464844-.18164063zm.710937 2.32421888 1.056641.9414062-1.056641.939453zm0 5.0781249 1.056641.9414062-1.056641.9414064z" stroke-width=".719213"/></g></svg>