<svg height="16" viewBox="0 0 16 16" width="16" xmlns="http://www.w3.org/2000/svg"><path class="warning" d="m9.5 8c-.832031 0-1.5.667969-1.5 1.5v5c0 .832031.667969 1.5 1.5 1.5h5c.832031 0 1.5-.667969 1.5-1.5v-5c0-.832031-.667969-1.5-1.5-1.5zm1.5 1h2v2.5s0 .5-.5.5h-1c-.5 0-.5-.5-.5-.5zm.5 4h1c.277344 0 .5.222656.5.5v1c0 .277344-.222656.5-.5.5h-1c-.277344 0-.5-.222656-.5-.5v-1c0-.277344.222656-.5.5-.5zm0 0" fill="#ff7800"/><path d="m8 0c-1.0546853 0-2.0892879.27901915-3 .8046875-1.8549062 1.0714264-3 3.0524591-3 5.1953125v5.142578s.000561 1.714844 1.7148438 1.714844h.8574218c.4754474 0 .8554688-.381973.8554688-.857422v-3.4277344c0-.4754452-.4268974-.8574219-.8554688-.8574218 0 0-.8574218-.0002801-.8574218-.8574219v-.8574219c0-1.5301311.8166882-2.9461511 2.1425781-3.7128906 1.32589-.7633917 2.9592654-.7633917 4.2851561 0 1.325897.7667395 2.142578 2.1827595 2.142578 3.7128906v.8574219c0 .0919542-.009596.1731161-.027344.2460937h1.742188v-1.1035156c0-2.1428534-1.145102-4.1238861-3-5.1953125-.910714-.52566835-1.945315-.8046875-3-.8046875z" fill="#2e3436" stroke-width=".999988"/></svg>
