<svg height="16" viewBox="0 0 16 16" width="16" xmlns="http://www.w3.org/2000/svg" xmlns:xlink="http://www.w3.org/1999/xlink"><filter id="a" height="100%" width="100%" x="0%" y="0%"><feColorMatrix color-interpolation-filters="sRGB" values="0 0 0 0 1 0 0 0 0 1 0 0 0 0 1 0 0 0 1 0"/></filter><mask id="b"><g filter="url(#a)"><path d="m-1.6-1.6h19.2v19.2h-19.2z" fill-opacity=".5"/></g></mask><clipPath id="c"><path d="m0 0h1600v1200h-1600z"/></clipPath><mask id="d"><g filter="url(#a)"><path d="m-1.6-1.6h19.2v19.2h-19.2z" fill-opacity=".7"/></g></mask><clipPath id="e"><path d="m0 0h1600v1200h-1600z"/></clipPath><mask id="f"><g filter="url(#a)"><path d="m-1.6-1.6h19.2v19.2h-19.2z" fill-opacity=".35"/></g></mask><clipPath id="g"><path d="m0 0h1600v1200h-1600z"/></clipPath><path d="m0 15h10.285156l-5.539062-8.703125zm0 0" fill="#222"/><path d="m8.933594 3.765625-2.078125 3.804687 4.714843 7.429688h4.429688zm0 0" fill="#222"/><g mask="url(#b)"><g clip-path="url(#c)" transform="translate(-580 -80)"><path d="m550 182c-.351562.003906-.695312.101562-1 .28125v3.4375c.304688.179688.648438.277344 1 .28125 1.105469 0 2-.894531 2-2s-.894531-2-2-2zm0 5c-.339844 0-.679688.058594-1 .175781v6.824219h4v-4c0-1.65625-1.34375-3-3-3zm0 0"/></g></g><g mask="url(#d)"><g clip-path="url(#e)" transform="translate(-580 -80)"><path d="m569 182v4c1.105469 0 2-.894531 2-2s-.894531-2-2-2zm0 5v7h3v-4c0-1.65625-1.34375-3-3-3zm0 0"/></g></g><g mask="url(#f)"><g clip-path="url(#g)" transform="translate(-580 -80)"><path d="m573 182.269531v3.449219c.613281-.355469.996094-1.007812 1-1.71875 0-.714844-.382812-1.375-1-1.730469zm0 4.90625v6.824219h2v-4c0-1.269531-.800781-2.402344-2-2.824219zm0 0"/></g></g></svg>