<svg height="16" viewBox="0 0 16 16" width="16" xmlns="http://www.w3.org/2000/svg"><path d="m7.1875 0c-2.2375466 0-4.0625 1.8249534-4.0625 4.0625v4.875c0 2.237545 1.8249534 4.0625 4.0625 4.0625h.2128906v-1.625h-.2128906c-1.3647451 0-2.4375-1.072754-2.4375-2.4375v-4.875c0-1.3647451 1.0727549-2.4375 2.4375-2.4375h1.5996094c1.3647426 0 2.4374996 1.0727549 2.4374996 2.4375v3.3378906h1.625v-3.3378906c0-2.2375466-1.824957-4.0625-4.0624996-4.0625zm.7871094 2.4375c-.4506836 0-.8125.3618165-.8125.8125v1.625c0 .4506835.3618164.8125.8125.8125.4506835 0 .8125-.3618165.8125-.8125v-1.625c0-.4506835-.3618165-.8125-.8125-.8125z" fill="#2e3436" stroke-width=".8125"/><path class="warning" d="m9.5 8c-.832031 0-1.5.667969-1.5 1.5v5c0 .832031.667969 1.5 1.5 1.5h5c.832031 0 1.5-.667969 1.5-1.5v-5c0-.832031-.667969-1.5-1.5-1.5zm1.5 1h2v2.5s0 .5-.5.5h-1c-.5 0-.5-.5-.5-.5zm.5 4h1c.277344 0 .5.222656.5.5v1c0 .277344-.222656.5-.5.5h-1c-.277344 0-.5-.222656-.5-.5v-1c0-.277344.222656-.5.5-.5zm0 0" fill="#ff7800"/></svg>
