<svg height="16" viewBox="0 0 16 16" width="16" xmlns="http://www.w3.org/2000/svg"><path d="m3.5566406 1.5c-1.6392665 0-2.76617835.9880563-2.9628906 2.9628906 0 0-.49414062 2.9607127-.49414062 4.9355469 0 0 .00103241 2.9628905 2.99414062 2.9628905 2.9313947 0 2.9316406-2.9628905 2.9316406-2.9628905 0-1.3518903.8630027-1.8812395 1.7265625-1.9609375.1071161-.0232955.2177346-.0371094.3320313-.0371094h4.6386716c-.441432-.0983072-.773437-.4925773-.773437-.9628906 0-.5438506.442477-.9882813.986328-.9882812.54385 0 .988281.4444306.988281.9882812 0 .4703133-.332005.8645834-.773437.9628906h1.302734c.633584 0 1.17417.3771279 1.414063.9199219-.105474-1.8221647-.462891-3.8574219-.462891-3.8574219-.161998-1.6315527-1.321671-2.9628906-2.960938-2.9628906zm.7402344 1.9746094h.4941406c.1349987 0 .2460938.1130482.2460938.2480468v.7402344h.7402344c.1349987 0 .2480468.1110951.2480468.2460938v.4941406c0 .1349987-.1130481.2460937-.2480468.2460938h-.7402344v.7402343c0 .1349987-.1110951.2480469-.2460938.2480469h-.4941406c-.1349988 0-.2480469-.1130482-.2480469-.2480469v-.7402343h-.7402343c-.1349987 0-.2460938-.1110951-.2460938-.2460938v-.4941406c0-.1349987.1110951-.2460938.2460938-.2460938h.7402343v-.7402344c0-.1349986.1130481-.2480468.2480469-.2480468zm5.6777344 0c.5438506 0 .9863286.4444306.9863286.9882812s-.442478.9863281-.9863286.9863282c-.5438506 0-.9882813-.4424776-.9882813-.9863282s.4444307-.9882812.9882813-.9882812z" fill="#2e3436" stroke-width=".999998"/><path class="warning" d="m9.5 8c-.832031 0-1.5.667969-1.5 1.5v5c0 .832031.667969 1.5 1.5 1.5h5c.832031 0 1.5-.667969 1.5-1.5v-5c0-.832031-.667969-1.5-1.5-1.5zm1.5 1h2v2.5s0 .5-.5.5h-1c-.5 0-.5-.5-.5-.5zm.5 4h1c.277344 0 .5.222656.5.5v1c0 .277344-.222656.5-.5.5h-1c-.277344 0-.5-.222656-.5-.5v-1c0-.277344.222656-.5.5-.5zm0 0" fill="#ff7800"/></svg>
