<svg height="16" viewBox="0 0 16 16" width="16" xmlns="http://www.w3.org/2000/svg"><path d="m8 0c-5.5340835 0-5.7581072.00149875-5.9277344.04101563-.9193032.21416388-1.62662055.88823532-1.87890622 1.79101557l-.06054688.2167969v3.8574219 3.8574219l.0507813.1835933c.23897813.8686578.89111365 1.5371488 1.73632815 1.7773438.1072698.03049.2647609.06362.3496093.07422.1101321.01375 2.5587932.0223 5.1308594.02344v-1.9589877h-1.98242185l-.1191407-.0605469c-.0782291-.039669-.1421849-.093734-.1855469-.15625l-.0664062-.0957031-.0078125-.6328125c-.00457-.4177239.00142-.6599568.017578-.7148437.030845-.1048037.1375088-.2258542.2460938-.28125.081283-.041468.1484155-.042969 2.2011718-.042969.058362 0 .054133-.0000074.109375 0 .235062-.3617618.6420417-.5996093 1.107422-.5996093h5.9589849c.523945 0 .973815.3019719 1.1875.7421876v-2.1269532-3.8457031l-.060547-.2148438c-.252589-.90348325-.964726-1.58286969-1.878907-1.79296867-.168738-.03877957-.422637-.04101563-5.927734-.04101563zm-4.9375 1.9511719c.5524212 0 .6270128.00467.7070312.041015.1166913.053003.2409134.2008576.2714844.3222657.032309.128312.032309 1.1275476 0 1.2558594-.030571.1214087-.1547931.2692632-.2714844.3222662-.0800911.0363809-.1541086.0413549-.7070312.0410156-.687142-.0004217-.7052516-.004045-.8535156-.1484375-.133608-.1301193-.1484375-.2146748-.1484375-.8554688 0-.6177843.012003-.688948.1386719-.8222656.1427741-.1502724.1748023-.15625.8632812-.15625zm5.3066406 0h.6152344c.5063828 0 .6298296.00503.6972656.033203.1039348.043416.1932004.1296864.2539063.2421874.045558.084427.048828.1132992.048828.7148438 0 .6015445-.00327.63237-.048828.7167968-.0607059.1125012-.1499715.1987718-.2539063.2421878-.0675103.0282025-.1908377.0336019-.6953125.0332031-.6743021-.0005332-.7158441-.0074052-.8515625-.1445313-.1359635-.1373743-.1347656-.1350303-.1347656-.8476562v-.6523438l.0664062-.1074219c.0483832-.0782578.0977725-.1250881.1835938-.1699218zm3.5917974 0h.625l.11914.070312c.09253.055558.133161.09832.181641.1914062l.0625.1210938-.0059.6308594-.0059.6308593-.06641.107422c-.04836.078173-.09977.1251119-.185547.1699218l-.117188.060547h-.621093c-.461414-.000642-.636347-.0078-.685547-.029297-.101702-.044429-.206116-.1418928-.259766-.2421874-.04692-.087622-.04883-.1151992-.04883-.7207031 0-.6015446.0013-.6304168.04687-.7148438.06071-.1125006.151924-.1987715.255859-.2421874.06753-.028207.190558-.033203.705079-.033203zm-6.3691411.00391c.1222133-.00274.2882762-.00214.484375 0l.6308593.00586.095703.066406c.06286.043603.1157934.1078158.15625.1875l.0625.1210937-.00781.6308594-.00586.6289062-.066406.107422c-.0483592.0781685-.0978198.1251078-.1835957.1699177l-.1191406.0605469h-.6191407c-.5857927-.000016-.6244387-.003092-.7128906-.046875-.0514952-.0254892-.1201838-.0770974-.1523437-.1152344-.1137647-.1349083-.1177076-.164132-.1171875-.8339843.000434-.5586349.0044956-.6324849.0410156-.7128907.0479442-.1055599.1803252-.2217463.2890625-.2539063.023943-.00708.102396-.012883.2246094-.015625zm-1.53125 2.9472656c.2980523.00102.5943017.013187.6503906.033203.1269562.045306.226137.1321561.2832031.2480469.050693.1029418.052734.1192955.052734.7226563 0 .5641021-.00431.625239-.042969.703125-.063235.1273909-.1809973.2302624-.30664.2675744-.085941.0255259-.231569.0310468-.6523437.0292969-.2977999-.0012409-.5710579-.0087281-.6074219-.0175782-.1698039-.0413384-.312202-.1726294-.359375-.3300781-.033019-.1102172-.0347721-1.1923475-.0019531-1.3105469.0315825-.1137451.2015238-.283083.3203125-.3183593.0659928-.0195976.3660102-.0283655.6640625-.0273438zm2.9414062 0c.2980523-.00102.5980697.00775.6640625.027344.1192761.035421.2829381.1990831.3183594.3183593.018314.06167.025719.2765632.025391.671875-.0004476.5375799-.00335.5899521-.044922.6816407-.055932.1233719-.1152459.1890418-.2285157.25-.083288.044823-.1214004.046271-.6835937.050781-.6840464.0054814-.7440269-.0037961-.8886721-.1484413-.1413731-.1413697-.1484375-.1766709-.1484375-.859375 0-.5917915.00211-.6081339.052734-.7109375.057067-.1158908.1582002-.2027406.2851562-.2480469.056089-.020016.3503852-.032181.6484375-.033203zm2.609375.00586c.1049291-.00216.2387706-.00194.4101559 0l.601563.00586.103515.0625c.07271.042741.126236.096209.171876.1757812l.06445.1152344.002.6230469c.00017.5139796-.0069.6375121-.03516.7050781-.04342.1039349-.127734.1951534-.240235.2558594-.08336.044984-.121596.046951-.673828.050781-.6937502.0048007-.7593773-.0074487-.90629-.1621142-.1209008-.1272778-.1289062-.1729379-.1289062-.8339843-.0000001-.6778475.0050109-.7063244.1484374-.8535157.1035525-.1062707.1676348-.138057.4824219-.1445312zm3.3261719.00586c.581702 0 .644634.00357.714844.041016.108367.057806.173535.1224521.228515.2246094.04544.084446.04687.1143275.04687.7265625v.6386718l-.06055.1035157c-.07129.1212631-.157279.1884557-.296876.2304687-.138031.041544-1.141744.039845-1.27539-.00195-.131343-.0410882-.219534-.1102607-.289054-.2285241l-.060547-.1035157v-.6386718c.000001-.5817022.0036-.646592.04102-.7167969.05781-.1083677.120499-.1715846.222656-.2265625.08445-.045442.116282-.048828.728516-.048828zm-9.2441406 2.9628906.1074218.058594c.1251281.068103.2088373.1760656.2441407.3183595.016127.065001.022072.2991472.017578.671875-.00654.5421209-.01028.5773664-.056641.6640625-.059423.1111226-.1885647.2209497-.2929688.25-.042424.011808-.3389444.021949-.6601562.021484-.6722722-.000977-.7116787-.0088839-.8535151-.1640674-.132741-.1452288-.1434957-.2221001-.1347657-.9042969l.00781-.5722656.058594-.1015625c.032567-.055396.101125-.1285486.1523437-.1640626l.09375-.064453.6582031-.00781z" fill="#2e3436"/><path class="warning" d="m9.5 8c-.832031 0-1.5.667969-1.5 1.5v5c0 .832031.667969 1.5 1.5 1.5h5c.832031 0 1.5-.667969 1.5-1.5v-5c0-.832031-.667969-1.5-1.5-1.5zm1.5 1h2v2.5s0 .5-.5.5h-1c-.5 0-.5-.5-.5-.5zm.5 4h1c.277344 0 .5.222656.5.5v1c0 .277344-.222656.5-.5.5h-1c-.277344 0-.5-.222656-.5-.5v-1c0-.277344.222656-.5.5-.5zm0 0" fill="#ff7800"/></svg>
