<svg height="16" viewBox="0 0 16 16" width="16" xmlns="http://www.w3.org/2000/svg"><g fill="#2e3436"><path d="m7.1875 0c-2.2375488 0-4.0625 1.8249512-4.0625 4.0625v4.875c0 2.237547 1.8249512 4.0625 4.0625 4.0625h1.5996092c2.2375448 0 4.0624968-1.824953 4.0624968-4.0625v-4.875c0-2.2375488-1.824952-4.0625-4.0624968-4.0625zm0 1.625h1.5996092c1.3647438 0 2.4374968 1.0727535 2.4374968 2.4375v4.875c0 1.364747-1.072753 2.4375-2.4374968 2.4375h-1.5996092c-1.3647465 0-2.4375-1.072753-2.4375-2.4375v-4.875c0-1.3647465 1.0727535-2.4375 2.4375-2.4375zm.7871092.8125c-.450684 0-.8125.361816-.8125.8125v1.625c0 .450684.361816.8125.8125.8125s.8125-.361816.8125-.8125v-1.625c0-.450684-.361816-.8125-.8125-.8125zm0 0" stroke-width=".8125"/><circle cx="12.081377" cy="14.705316" r="1.294684"/><circle cx="3.851777" cy="14.705316" r="1.294684"/><circle cx="7.966577" cy="14.705316" r="1.294684"/></g></svg>