<svg height="16" viewBox="0 0 16 16" width="16" xmlns="http://www.w3.org/2000/svg"><g fill="#2e3436" transform="matrix(.80107987 0 0 .80107987 1.56 -.000391)"><path d="m3.9943154 1.0001149c-1.2579988.015-2.1786153-.0297774-2.9306145.3852222a1.88 1.88 0 0 0 -.83871163.9971891c-.16499984.4389995-.2243066.959471-.2243066 1.6164703v8.0018945c0 .657999.05930676 1.17847.2243066 1.61647.16399984.439.461712.789189.83871163.997189.7519992.416 1.6726157.370222 2.9306145.385222h3.2963317v-.999627h-3.2914555c-1.2589988-.015-2.0901824-.06132-2.455182-.263316-.1829998-.1-.2872223-.210557-.3852222-.470557-.097-.259999-.1584775-.673382-.1584775-1.265381v-8.0018945c0-.5919994.061478-1.005382.1584775-1.2653817.098-.2599998.2022224-.3695564.3852222-.4705563.3649996-.2019998 1.1951832-.2483164 2.455182-.2633164h3.852222l.9825604-.9996272h-4.8347824zm11.7639056 1.3482777-.819207.804578c.037.2299997.06095.4990263.06095.8460259v5.0517747h.999628v-5.0517747c0-.6579993-.05931-1.1774708-.224307-1.6164703-.005-.013-.01207-.022134-.01707-.034134z"/><path d="m11.237956.00048762-.353527.35840294-6.9681333 7.09491524-.0292574.0463241c-.061.099-.272148.4494001-.5851477 1.0873994-.3139996.6379994-.6998181 1.5097547-1.0118178 2.4917537l-.2901357.921608.9191695-.292574a18.163 18.163 0 0 0 2.4917537-1.011818c.6379993-.313.9888376-.51871 1.0898375-.58271l.043886-.029257 7.4557562-7.3216599zm1.762757 6.99982868v2.0504549h.999627v-2.0504549zm-8.1091713.8899121 1.2166195 1.2190576-.1755443.1755443c.007-.005-.3786179.2274426-.9606174.5144423-.2139997.1049999-.5358356.2228984-.8338353.3388984l-.2755071-.2755074c.1159999-.2979997.2338982-.6198356.338898-.8338354.2869998-.5819994.5184423-.9666174.5144424-.9606174zm-.8923501 4.1106626v.999627h3.2914555v-.999627z"/></g><path class="warning" d="m9.5 8c-.832031 0-1.5.667969-1.5 1.5v5c0 .832031.667969 1.5 1.5 1.5h5c.832031 0 1.5-.667969 1.5-1.5v-5c0-.832031-.667969-1.5-1.5-1.5zm1.5 1h2v2.5s0 .5-.5.5h-1c-.5 0-.5-.5-.5-.5zm.5 4h1c.277344 0 .5.222656.5.5v1c0 .277344-.222656.5-.5.5h-1c-.277344 0-.5-.222656-.5-.5v-1c0-.277344.222656-.5.5-.5zm0 0" fill="#ff7800"/></svg>
